2.5Hzhigh3min_grf.mot
version=1
nRows=10
nColumns 19
inDegrees=yes
endheader
time	1_ground_force_vx	1_ground_force_vy	1_ground_force_vz	1_ground_force_px	1_ground_force_py	1_ground_force_pz	1_ground_torque_x	1_ground_torque_y	1_ground_torque_z	2_ground_force_vx	2_ground_force_vy	2_ground_force_vz	2_ground_force_px	2_ground_force_py	2_ground_force_pz	2_ground_torque_x	2_ground_torque_y	2_ground_torque_z
            2.502500	           -0.045459	            2.882669	            0.379328	           -0.233013	            0.005581	           -0.255695	            0.132663	           -0.184769	           -0.021977	            0.842839	            0.185520	            0.469579	           -0.232311	            0.006130	           -0.833667	           -0.149470	           -0.245708	           -0.170465
            2.503000	            0.138273	            2.161249	            0.467493	           -0.233013	            0.005581	           -0.255695	            0.185592	            0.101713	            0.024561	            0.841010	            0.736626	            0.846975	           -0.232311	            0.006130	           -0.833667	           -0.262318	           -0.217488	           -0.245717
            2.503500	            0.321465	            2.522012	            0.422728	           -0.233013	            0.005581	           -0.255695	            0.149864	            0.212548	            0.070527	            0.750448	           -0.182948	            0.421377	           -0.232311	            0.006130	           -0.833667	           -0.168724	           -0.122689	           -0.226569
            2.504000	            0.366577	            2.162866	            0.100077	           -0.233013	            0.005581	           -0.255695	            0.144753	            0.120606	           -0.040676	            0.609172	            0.001195	            0.281310	           -0.232311	            0.006130	           -0.833667	           -0.244189	           -0.037751	           -0.263934
            2.504500	            0.275020	            2.703252	            0.194335	           -0.233013	            0.005581	           -0.255695	            0.084162	           -0.101205	           -0.064203	            0.702289	            0.185012	            0.469639	           -0.232311	            0.006130	           -0.833667	           -0.187834	           -0.028364	           -0.188523
            2.505000	            0.367503	            2.701893	            0.515099	           -0.233013	            0.005581	           -0.255695	            0.239523	           -0.332287	           -0.042872	            0.471384	           -0.736743	            0.513382	           -0.232311	            0.006130	           -0.833667	           -0.187662	           -0.084811	           -0.264127
            2.505500	            0.183921	            1.981385	            0.374895	           -0.233013	            0.005581	           -0.255695	            0.076891	           -0.369382	           -0.050421	            0.374402	            0.183326	            0.610563	           -0.232311	            0.006130	           -0.833667	           -0.168630	           -0.150980	           -0.245520
            2.506000	            0.138141	            2.882311	            0.470585	           -0.233013	            0.005581	           -0.255695	            0.072400	           -0.138396	           -0.032608	            0.795969	            0.185518	            0.422671	           -0.232311	            0.006130	           -0.833667	           -0.205946	           -0.208235	           -0.132606
            2.506500	            0.138581	            2.340924	            0.605834	           -0.233013	            0.005581	           -0.255695	            0.160875	            0.157093	            0.043651	            0.611954	           -0.736403	            0.560250	           -0.232311	            0.006130	           -0.833667	           -0.205962	           -0.217284	           -0.245741
            2.507000	            0.321905	            1.980625	            0.557977	           -0.233013	            0.005581	           -0.255695	            0.125164	            0.157813	           -0.098810	            0.420464	            0.368647	            0.329632	           -0.232311	            0.006130	           -0.833667	           -0.225123	           -0.104189	           -0.169927
